<svg xmlns="http://www.w3.org/2000/svg" fill="none" viewBox="0 0 158 25" height="25" width="158">
<g clip-path="url(#clip0_1578_138)">
<path fill-opacity="0.4" fill="#1D1E20" d="M9.58829 16.3049C8.69071 17.2212 7.48145 17.7697 6.22234 17.8133H2.63199C2.54472 17.8133 2.54472 17.6575 2.54472 17.6575V8.32632C2.52602 8.20789 2.66315 8.23906 2.66315 8.23906H5.99794C8.39151 8.35749 10.3363 9.92203 10.7975 12.1286C11.1404 13.6932 10.6666 15.2203 9.58206 16.3049H9.58829ZM4.46456 10.1527V15.906H6.2348C6.87683 15.906 8.00505 15.4696 8.56604 14.7154C9.22053 13.8303 9.233 12.54 8.69694 11.6112C7.83052 10.1153 6.04157 10.1464 4.45833 10.1589L4.46456 10.1527Z"></path>
<path fill-opacity="0.4" fill="#1D1E20" d="M24.135 17.8195H22.2152L21.461 15.8996H17.8644L17.1226 17.8195H15.0345C15.0345 17.8195 14.9784 17.8382 15.0095 17.7447L18.575 8.29505C18.575 8.29505 18.5999 8.23895 18.6622 8.23895H20.5073C20.607 8.23895 20.5821 8.22025 20.6257 8.31375L24.241 17.701C24.241 17.701 24.3096 17.8195 24.1413 17.8195H24.135ZM19.6658 10.8071L18.4628 13.986H20.7566L19.672 10.8071H19.6658Z"></path>
<path fill-opacity="0.4" fill="#1D1E20" d="M30.5729 17.8189H28.8214C28.7653 17.8189 28.7341 17.8189 28.7341 17.7628V8.3132C28.7341 8.26957 28.759 8.2384 28.8214 8.2384H30.5729C30.6477 8.2384 30.6477 8.26334 30.6477 8.3132V17.7441C30.6477 17.8002 30.629 17.8189 30.5729 17.8189Z"></path>
<path fill-opacity="0.4" fill="#1D1E20" d="M42.2278 17.8189H36.8298C36.8298 17.8189 36.7426 17.8189 36.7426 17.7628V8.3132C36.7426 8.26957 36.7675 8.2384 36.8298 8.2384H38.5876C38.6624 8.2384 38.6624 8.26334 38.6624 8.3132V15.8991H42.234C42.2901 15.8991 42.3088 15.924 42.3088 15.9739V17.7316C42.3088 17.8002 42.2901 17.8189 42.2278 17.8189Z"></path>
<path fill-opacity="0.4" fill="#1D1E20" d="M52.1923 17.8189H50.4345C50.3784 17.8189 50.3473 17.8189 50.3473 17.7628V13.4245L47.081 8.3132C47.081 8.3132 47.0623 8.2384 47.1247 8.2384H49.0881L51.3134 11.5046L53.52 8.2384H55.4087C55.4648 8.2384 55.4523 8.3132 55.4523 8.3132L52.2733 13.4245V17.7503C52.2733 17.8064 52.2546 17.8189 52.1985 17.8189H52.1923Z"></path>
<path fill-opacity="0.4" fill="#1D1E20" d="M78.5459 17.8189H76.7756C76.732 17.8189 76.7008 17.8189 76.7008 17.7628V13.8483H72.3749C72.3749 15.1511 72.3936 16.4476 72.3749 17.7379C72.3749 17.8127 72.3562 17.8251 72.3001 17.8251H70.5486C70.4925 17.8251 70.4613 17.8251 70.4613 17.769V8.3132C70.4613 8.26957 70.4863 8.2384 70.5486 8.2384H72.3001C72.3749 8.2384 72.3749 8.26334 72.3749 8.2945C72.3749 8.39423 72.3749 7.71481 72.3749 11.9223H76.7008V8.3132C76.7008 8.26957 76.7257 8.2384 76.7881 8.2384H78.5396C78.5957 8.2384 78.6144 8.26334 78.6144 8.2945V17.7441C78.6144 17.8002 78.602 17.8189 78.5459 17.8189Z"></path>
<path fill-opacity="0.4" fill="#1D1E20" d="M93.1484 17.8195H91.2285L90.4743 15.8996H86.8777L86.136 17.8195H84.0478C84.0478 17.8195 83.9917 17.8382 84.0229 17.7447L87.5946 8.29505C87.5946 8.29505 87.6195 8.23895 87.6818 8.23895H89.5269C89.6266 8.23895 89.6017 8.22025 89.6453 8.31375L93.2606 17.701C93.2606 17.701 93.3354 17.8195 93.1609 17.8195H93.1484ZM88.6791 10.8071L87.4761 13.986H89.77L88.6854 10.8071H88.6791Z"></path>
<path fill-opacity="0.4" fill="#1D1E20" d="M100.457 17.8184H98.6994C98.6433 17.8184 98.6122 17.8184 98.6122 17.7623V8.31274C98.6122 8.2691 98.6371 8.23794 98.7119 8.23794C99.597 8.23794 100.364 8.21924 101.105 8.21924C102.495 8.23794 103.181 8.58077 103.848 9.52199C104.241 10.0767 104.428 10.7686 104.372 11.4418C104.297 12.2584 103.879 13.0064 103.032 13.343C104.11 14.8265 105.357 16.1542 106.316 17.6813C106.341 17.7686 106.26 17.7997 106.217 17.8122H104.054C103.069 16.5095 102.09 15.2441 101.168 13.9788H100.588C100.588 13.9788 100.532 13.9601 100.532 14.0349V17.7374C100.532 17.7935 100.52 17.806 100.463 17.806L100.457 17.8184ZM100.526 12.0714C101.049 12.0901 101.76 12.1587 102.165 11.7099C102.402 11.4668 102.427 11.0304 102.308 10.7499C102.047 10.083 101.28 10.1266 100.638 10.1266H100.52V12.0714H100.526Z"></path>
<path fill-opacity="0.4" fill="#1D1E20" d="M115.492 17.7011C115.436 17.832 115.474 17.8196 115.318 17.8196H113.61C113.523 17.8196 113.554 17.8383 113.491 17.7011L109.832 8.32632C109.808 8.20789 109.92 8.23906 109.92 8.23906H111.852L114.507 15.0458L117.032 8.23906H118.902C118.902 8.23906 119.02 8.21412 118.977 8.32632L115.499 17.7011H115.492Z"></path>
<path fill-opacity="0.4" fill="#1D1E20" d="M124.461 8.21924H130.744C130.8 8.23794 130.819 8.26287 130.819 8.29404V10.0767C130.819 10.1328 130.8 10.164 130.744 10.164H126.2V11.9779H129.566C129.641 11.9779 129.641 12.0028 129.641 12.0527V13.8229C129.641 13.879 129.622 13.8977 129.566 13.8977H126.281V15.8986H130.937C130.993 15.8986 130.993 15.9235 130.993 15.9734V17.7436C130.993 17.7997 130.975 17.8184 130.918 17.8184H124.442C124.386 17.8184 124.355 17.8184 124.355 17.7623V8.31274C124.355 8.25664 124.392 8.21924 124.448 8.21924H124.461Z"></path>
<path fill-opacity="0.4" fill="#1D1E20" d="M139.301 17.9817C138.254 17.9256 137.312 17.3833 136.758 16.4733C136.639 16.2738 136.496 16.0369 136.515 15.7752C137.051 15.4261 137.593 15.1331 138.123 14.8152C138.241 15.077 138.31 15.3513 138.503 15.5819C138.821 15.9435 139.245 16.1865 139.768 16.118C140.454 15.9996 141.059 15.1581 140.71 14.4911C140.248 13.6247 139.201 13.5499 138.403 13.151C137.387 12.6461 136.658 11.6113 136.702 10.5081C136.727 9.44841 137.543 8.38875 138.572 8.11449C139.893 7.76543 141.314 8.27656 141.981 9.51074C142.006 9.52944 141.962 9.62917 141.962 9.62917C141.962 9.62917 140.672 10.4956 140.466 10.5455C140.248 10.1839 139.943 9.76007 139.507 9.76007C138.478 9.74137 138.241 10.72 138.827 11.2685C139.912 11.9916 141.426 11.9479 142.212 13.2133C142.779 14.1109 142.922 15.3887 142.355 16.3361C141.707 17.3896 140.653 18.0565 139.301 17.9693V17.9817Z"></path>
<path fill-opacity="0.4" fill="#1D1E20" d="M155.371 10.152C154.443 10.152 153.545 10.1333 152.598 10.152C152.598 12.6765 152.616 15.2072 152.616 17.7441C152.616 17.8002 152.591 17.8189 152.529 17.8189H150.771C150.715 17.8189 150.684 17.8189 150.684 17.7628C150.684 15.1947 150.684 12.8011 150.703 10.1582H147.898C147.842 10.1582 147.81 10.1582 147.81 10.1021V8.3132C147.81 8.26957 147.835 8.2384 147.898 8.2384H155.384C155.44 8.2384 155.459 8.26334 155.459 8.2945V10.0772C155.459 10.1333 155.427 10.1458 155.365 10.1458L155.371 10.152Z"></path>
</g>
<defs>
<clipPath id="clip0_1578_138">
<rect transform="translate(2.54297 8.01392)" fill="white" height="9.9732" width="152.914"></rect>
</clipPath>
</defs>
</svg>
